<svg width="447" height="525" viewBox="0 0 447 525" xmlns="http://www.w3.org/2000/svg" lang="en" xml:lang="en"><rect x="2" y="2" stroke-width="4" rx="6" width="443" height="521" stroke="rgba(65,132,228,0.4)" fill="#22272e"/><g font-weight="600" font-size="110pt" font-family="Verdana,Geneva,DejaVu Sans,sans-serif" text-rendering="geometricPrecision"><g transform="translate(0, 21)" fill="#adbac7"><g transform="translate(15, 0)"><g transform="scale(0.095)"><text x="0" y="132" textLength="1020" lengthAdjust="spacingAndGlyphs">Repositories</text><text x="2347" y="132" textLength="832" lengthAdjust="spacingAndGlyphs">Non-Forks</text><text x="3516" y="132" textLength="206" lengthAdjust="spacingAndGlyphs">All</text></g></g><g transform="translate(15, 21)"><path fill="#316dca" fill-rule="evenodd" d="M2 2.5A2.5 2.5 0 014.5 0h8.75a.75.75 0 01.75.75v12.5a.75.75 0 01-.75.75h-2.5a.75.75 0 110-1.5h1.75v-2h-8a1 1 0 00-.714 1.7.75.75 0 01-1.072 1.05A2.495 2.495 0 012 11.5v-9zm10.5-1V9h-8c-.356 0-.694.074-1 .208V2.5a1 1 0 011-1h8zM5 12.25v3.25a.25.25 0 00.4.2l1.45-1.087a.25.25 0 01.3 0L8.6 15.7a.25.25 0 00.4-.2v-3.25a.25.25 0 00-.25-.25h-3.5a.25.25 0 00-.25.25z"/><g transform="scale(0.095)"><text lengthAdjust="spacingAndGlyphs" textLength="1312" x="263" y="132">My Repositories</text><text lengthAdjust="spacingAndGlyphs" textLength="210" x="2347" y="132">20</text><text lengthAdjust="spacingAndGlyphs" textLength="210" x="3516" y="132">23</text></g></g><g transform="translate(15, 42)"><path fill="#316dca" fill-rule="evenodd" d="M8 .25a.75.75 0 01.673.418l1.882 3.815 4.21.612a.75.75 0 01.416 1.279l-3.046 2.97.719 4.192a.75.75 0 01-1.088.791L8 12.347l-3.766 1.98a.75.75 0 01-1.088-.79l.72-4.194L.818 6.374a.75.75 0 01.416-1.28l4.21-.611L7.327.668A.75.75 0 018 .25zm0 2.445L6.615 5.5a.75.75 0 01-.564.41l-3.097.45 2.24 2.184a.75.75 0 01.216.664l-.528 3.084 2.769-1.456a.75.75 0 01.698 0l2.77 1.456-.53-3.084a.75.75 0 01.216-.664l2.24-2.183-3.096-.45a.75.75 0 01-.564-.41L8 2.694v.001z"/><g transform="scale(0.095)"><text lengthAdjust="spacingAndGlyphs" textLength="874" x="263" y="132">Starred By</text><text lengthAdjust="spacingAndGlyphs" textLength="315" x="2347" y="132">168</text><text lengthAdjust="spacingAndGlyphs" textLength="315" x="3516" y="132">170</text></g></g></g><g transform="translate(0, 105)" fill="#adbac7"><g transform="translate(15, 0)"><g transform="scale(0.095)"><text x="0" y="132" textLength="1112" lengthAdjust="spacingAndGlyphs">Contributions</text><text x="2347" y="132" textLength="774" lengthAdjust="spacingAndGlyphs">Past Year</text><text x="3516" y="132" textLength="414" lengthAdjust="spacingAndGlyphs">Total</text></g></g><g transform="translate(15, 21)"><path fill="#316dca" fill-rule="evenodd" d="M10.5 7.75a2.5 2.5 0 11-5 0 2.5 2.5 0 015 0zm1.43.75a4.002 4.002 0 01-7.86 0H.75a.75.75 0 110-1.5h3.32a4.001 4.001 0 017.86 0h3.32a.75.75 0 110 1.5h-3.32z"/><g transform="scale(0.095)"><text lengthAdjust="spacingAndGlyphs" textLength="734" x="263" y="132">Commits</text><text lengthAdjust="spacingAndGlyphs" textLength="315" x="2347" y="132">352</text><text lengthAdjust="spacingAndGlyphs" textLength="420" x="3516" y="132">2224</text></g></g><g transform="translate(15, 42)"><path fill="#316dca" d="M8 9.5a1.5 1.5 0 100-3 1.5 1.5 0 000 3z"/><path fill="#316dca" fill-rule="evenodd" d="M8 0a8 8 0 100 16A8 8 0 008 0zM1.5 8a6.5 6.5 0 1113 0 6.5 6.5 0 01-13 0z"/><g transform="scale(0.095)"><text lengthAdjust="spacingAndGlyphs" textLength="512" x="263" y="132">Issues</text><text lengthAdjust="spacingAndGlyphs" textLength="105" x="2347" y="132">0</text><text lengthAdjust="spacingAndGlyphs" textLength="105" x="3516" y="132">6</text></g></g><g transform="translate(15, 63)"><path fill="#316dca" fill-rule="evenodd" d="M7.177 3.073L9.573.677A.25.25 0 0110 .854v4.792a.25.25 0 01-.427.177L7.177 3.427a.25.25 0 010-.354zM3.75 2.5a.75.75 0 100 1.5.75.75 0 000-1.5zm-2.25.75a2.25 2.25 0 113 2.122v5.256a2.251 2.251 0 11-1.5 0V5.372A2.25 2.25 0 011.5 3.25zM11 2.5h-1V4h1a1 1 0 011 1v5.628a2.251 2.251 0 101.5 0V5A2.5 2.5 0 0011 2.5zm1 10.25a.75.75 0 111.5 0 .75.75 0 01-1.5 0zM3.75 12a.75.75 0 100 1.5.75.75 0 000-1.5z"/><g transform="scale(0.095)"><text lengthAdjust="spacingAndGlyphs" textLength="1113" x="263" y="132">Pull Requests</text><text lengthAdjust="spacingAndGlyphs" textLength="210" x="2347" y="132">37</text><text lengthAdjust="spacingAndGlyphs" textLength="315" x="3516" y="132">183</text></g></g><g transform="translate(15, 84)"><path fill="#316dca" fill-rule="evenodd" d="M1.5 2.75a.25.25 0 01.25-.25h8.5a.25.25 0 01.25.25v5.5a.25.25 0 01-.25.25h-3.5a.75.75 0 00-.53.22L3.5 11.44V9.25a.75.75 0 00-.75-.75h-1a.25.25 0 01-.25-.25v-5.5zM1.75 1A1.75 1.75 0 000 2.75v5.5C0 9.216.784 10 1.75 10H2v1.543a1.457 1.457 0 002.487 1.03L7.061 10h3.189A1.75 1.75 0 0012 8.25v-5.5A1.75 1.75 0 0010.25 1h-8.5zM14.5 4.75a.25.25 0 00-.25-.25h-.5a.75.75 0 110-1.5h.5c.966 0 1.75.784 1.75 1.75v5.5A1.75 1.75 0 0114.25 12H14v1.543a1.457 1.457 0 01-2.487 1.03L9.22 12.28a.75.75 0 111.06-1.06l2.22 2.22v-2.19a.75.75 0 01.75-.75h1a.25.25 0 00.25-.25v-5.5z"/><g transform="scale(0.095)"><text lengthAdjust="spacingAndGlyphs" textLength="1762" x="263" y="132">Pull Request Reviews</text><text lengthAdjust="spacingAndGlyphs" textLength="105" x="2347" y="132">1</text><text lengthAdjust="spacingAndGlyphs" textLength="105" x="3516" y="132">1</text></g></g><g transform="translate(15, 105)"><path fill="#316dca" fill-rule="evenodd" d="M1 2.5A2.5 2.5 0 013.5 0h8.75a.75.75 0 01.75.75v3.5a.75.75 0 01-1.5 0V1.5h-8a1 1 0 00-1 1v6.708A2.492 2.492 0 013.5 9h3.25a.75.75 0 010 1.5H3.5a1 1 0 100 2h5.75a.75.75 0 010 1.5H3.5A2.5 2.5 0 011 11.5v-9zm13.23 7.79a.75.75 0 001.06-1.06l-2.505-2.505a.75.75 0 00-1.06 0L9.22 9.229a.75.75 0 001.06 1.061l1.225-1.224v6.184a.75.75 0 001.5 0V9.066l1.224 1.224z"/><g transform="scale(0.095)"><text lengthAdjust="spacingAndGlyphs" textLength="1234" x="263" y="132">Contributed To</text><text lengthAdjust="spacingAndGlyphs" textLength="105" x="2347" y="132">1</text></g></g><g transform="translate(15, 126)"><path fill="#316dca" fill-rule="evenodd" d="M4 4v2h-.25A1.75 1.75 0 002 7.75v5.5c0 .966.784 1.75 1.75 1.75h8.5A1.75 1.75 0 0014 13.25v-5.5A1.75 1.75 0 0012.25 6H12V4a4 4 0 10-8 0zm6.5 2V4a2.5 2.5 0 00-5 0v2h5zM12 7.5h.25a.25.25 0 01.25.25v5.5a.25.25 0 01-.25.25h-8.5a.25.25 0 01-.25-.25v-5.5a.25.25 0 01.25-.25H12z"/><g transform="scale(0.095)"><text lengthAdjust="spacingAndGlyphs" textLength="1742" x="263" y="132">Private Contributions</text><text lengthAdjust="spacingAndGlyphs" textLength="315" x="2347" y="132">890</text><text lengthAdjust="spacingAndGlyphs" textLength="420" x="3516" y="132">1669</text></g></g></g><g transform="translate(0, 273)" fill="#adbac7"><g transform="translate(15, 0)"><g transform="scale(0.095)"><text x="0" y="132" textLength="3652" lengthAdjust="spacingAndGlyphs">Language Distribution in Public Repositories</text></g></g><g transform="translate(238, 21)"><circle cx="92" cy="92" r="92" fill="#ffffff"/></g><g transform="translate(239, 22)"><path fill-rule="evenodd" fill="#555555" d="M 0.0,91.00000000000001 A 91 91 0 0 1 122.20303759085945 5.5168411609432155 L 91,91 Z"/><path fill-rule="evenodd" fill="#3178c6" d="M 122.20303759085945,5.5168411609432155 A 91 91 0 0 1 179.2081793890926 113.3677689737188 L 91,91 Z"/><path fill-rule="evenodd" fill="#3572A5" d="M 179.2081793890926,113.3677689737188 A 91 91 0 0 1 135.61800878725828 170.31099099027915 L 91,91 Z"/><path fill-rule="evenodd" fill="#6E4C13" d="M 135.61800878725828,170.31099099027915 A 91 91 0 0 1 98.11540722774201 181.7213920747659 L 91,91 Z"/><path fill-rule="evenodd" fill="#f34b7d" d="M 98.11540722774201,181.7213920747659 A 91 91 0 0 1 66.28148704030036 178.57850830575478 L 91,91 Z"/><path fill-rule="evenodd" fill="#adb2cb" d="M 66.28148704030036,178.57850830575478 A 91 91 0 0 1 40.14375968100336 166.46285722536922 L 91,91 Z"/><path fill-rule="evenodd" fill="#dea584" d="M 40.14375968100336,166.46285722536922 A 91 91 0 0 1 20.08292052320263 148.0242741162183 L 91,91 Z"/><path fill-rule="evenodd" fill="#5e5086" d="M 20.08292052320263,148.0242741162183 A 91 91 0 0 1 6.676281783458691 125.21272491540742 L 91,91 Z"/><path fill-rule="evenodd" fill="#6e4a7e" d="M 6.676281783458691,125.21272491540742 A 91 91 0 0 1 1.619227594473358 108.09027572017042 L 91,91 Z"/><path fill-rule="evenodd" fill="#959da5" d="M 1.619227594473358,108.09027572017042 A 91 91 0 0 1 0.0 91.00000000000003 L 91,91 Z"/></g><g transform="translate(15, 21)"><rect x="0.5" y="0.5" rx="2" width="15" height="15" fill="#555555" stroke-width="1" stroke="#ffffff"/><text transform="scale(0.095)" x="263" y="132" textLength="798" lengthAdjust="spacingAndGlyphs">C 30.57%</text></g><g transform="translate(15, 42)"><rect x="0.5" y="0.5" rx="2" width="15" height="15" fill="#3178c6" stroke-width="1" stroke="#ffffff"/><text transform="scale(0.095)" x="263" y="132" textLength="1568" lengthAdjust="spacingAndGlyphs">TypeScript 23.38%</text></g><g transform="translate(15, 63)"><rect x="0.5" y="0.5" rx="2" width="15" height="15" fill="#3572A5" stroke-width="1" stroke="#ffffff"/><text transform="scale(0.095)" x="263" y="132" textLength="1254" lengthAdjust="spacingAndGlyphs">Python 12.89%</text></g><g transform="translate(15, 84)"><rect x="0.5" y="0.5" rx="2" width="15" height="15" fill="#6E4C13" stroke-width="1" stroke="#ffffff"/><text transform="scale(0.095)" x="263" y="132" textLength="1372" lengthAdjust="spacingAndGlyphs">Assembly 6.91%</text></g><g transform="translate(15, 105)"><rect x="0.5" y="0.5" rx="2" width="15" height="15" fill="#f34b7d" stroke-width="1" stroke="#ffffff"/><text transform="scale(0.095)" x="263" y="132" textLength="969" lengthAdjust="spacingAndGlyphs">C++ 5.62%</text></g><g transform="translate(15, 126)"><rect x="0.5" y="0.5" rx="2" width="15" height="15" fill="#adb2cb" stroke-width="1" stroke="#ffffff"/><text transform="scale(0.095)" x="263" y="132" textLength="1034" lengthAdjust="spacingAndGlyphs">VHDL 5.06%</text></g><g transform="translate(15, 147)"><rect x="0.5" y="0.5" rx="2" width="15" height="15" fill="#dea584" stroke-width="1" stroke="#ffffff"/><text transform="scale(0.095)" x="263" y="132" textLength="946" lengthAdjust="spacingAndGlyphs">Rust 4.78%</text></g><g transform="translate(15, 168)"><rect x="0.5" y="0.5" rx="2" width="15" height="15" fill="#5e5086" stroke-width="1" stroke="#ffffff"/><text transform="scale(0.095)" x="263" y="132" textLength="1179" lengthAdjust="spacingAndGlyphs">Haskell 4.64%</text></g><g transform="translate(15, 189)"><rect x="0.5" y="0.5" rx="2" width="15" height="15" fill="#6e4a7e" stroke-width="1" stroke="#ffffff"/><text transform="scale(0.095)" x="263" y="132" textLength="987" lengthAdjust="spacingAndGlyphs">Elixir 3.13%</text></g><g transform="translate(15, 210)"><rect x="0.5" y="0.5" rx="2" width="15" height="15" fill="#959da5" stroke-width="1" stroke="#ffffff"/><text transform="scale(0.095)" x="263" y="132" textLength="1047" lengthAdjust="spacingAndGlyphs">Other 3.01%</text></g></g></g></svg>